<svg xmlns="http://www.w3.org/2000/svg" width="35" height="35" viewBox="0 0 35 35">
  <g id="Groupe_13" data-name="Groupe 13" transform="translate(-256 -611)">
    <g id="Tracé_370" data-name="Tracé 370" transform="translate(256 611)" fill="#eee">
      <path d="M 17.5 34 C 13.09269046783447 34 8.949179649353027 32.28369903564453 5.83273983001709 29.16725921630859 C 2.716300010681152 26.05081939697266 1 21.90731048583984 1 17.5 C 1 13.09269046783447 2.716300010681152 8.949179649353027 5.83273983001709 5.83273983001709 C 8.949179649353027 2.716300010681152 13.09269046783447 1 17.5 1 C 21.90731048583984 1 26.05081939697266 2.716300010681152 29.16725921630859 5.83273983001709 C 32.28369903564453 8.949179649353027 34 13.09269046783447 34 17.5 C 34 21.90731048583984 32.28369903564453 26.05081939697266 29.16725921630859 29.16725921630859 C 26.05081939697266 32.28369903564453 21.90731048583984 34 17.5 34 Z" stroke="none"/>
      <path d="M 17.5 2 C 13.35980033874512 2 9.467409133911133 3.612279891967773 6.539850234985352 6.539850234985352 C 3.612279891967773 9.467409133911133 2 13.35980033874512 2 17.5 C 2 21.64019966125488 3.612279891967773 25.53258895874023 6.539850234985352 28.46014976501465 C 9.467409133911133 31.38772010803223 13.35980033874512 33 17.5 33 C 21.64019966125488 33 25.53258895874023 31.38772010803223 28.46014976501465 28.46014976501465 C 31.38772010803223 25.53258895874023 33 21.64019966125488 33 17.5 C 33 13.35980033874512 31.38772010803223 9.467409133911133 28.46014976501465 6.539850234985352 C 25.53258895874023 3.612279891967773 21.64019966125488 2 17.5 2 M 17.5 0 C 27.16497993469238 0 35 7.835020065307617 35 17.5 C 35 27.16497993469238 27.16497993469238 35 17.5 35 C 7.835020065307617 35 0 27.16497993469238 0 17.5 C 0 7.835020065307617 7.835020065307617 0 17.5 0 Z" stroke="none" fill="#fff"/>
    </g>
    <g id="Composant_14_1" data-name="Composant 14 – 1" transform="translate(267 622)">
      <path id="Union_1" data-name="Union 1" d="M5.688,13V7.313H0V5.687H5.688V0H7.313V5.687H13V7.313H7.313V13Z" fill="#65bf0c" stroke="#65bf0c" stroke-width="1"/>
    </g>
  </g>
</svg>
