<svg xmlns="http://www.w3.org/2000/svg" width="23.415" height="26.128" viewBox="0 0 23.415 26.128">
  <g id="Groupe_22" data-name="Groupe 22" transform="translate(-1085.594 -815.249)">
    <path id="Tracé_282" data-name="Tracé 282" d="M1184.5,853.741l-1.115,22.011-14.235-2.659,1.915-14.893a.864.864,0,0,1,.129-.342,1.015,1.015,0,0,1,.386-.2l2.516-.8a12.645,12.645,0,0,1,1.2-3.231,5.546,5.546,0,0,1,2.83-2.687,2.139,2.139,0,0,1,2.144.2,2.236,2.236,0,0,1,.343.372,2.114,2.114,0,0,1,1.4.4,3.946,3.946,0,0,1,1.344,2.087l.772-.229A.8.8,0,0,1,1184.5,853.741Zm-3.716,5.974a3.142,3.142,0,0,0-.528-.2,4.213,4.213,0,0,0-.672-.129,6.862,6.862,0,0,0-.786-.044,6.422,6.422,0,0,0-.844.057,6,6,0,0,0-1.714.515,4.17,4.17,0,0,0-2.13,2.258,4.643,4.643,0,0,0-.329,1.6,3.015,3.015,0,0,0,.086.929,3.147,3.147,0,0,0,.343.829,3.853,3.853,0,0,0,.528.7,6.513,6.513,0,0,0,.7.629,4.726,4.726,0,0,1,.5.4,2.823,2.823,0,0,1,.357.4,1.28,1.28,0,0,1,.2.414,1.341,1.341,0,0,1,.044.429,1.143,1.143,0,0,1-.1.4.868.868,0,0,1-.243.314.969.969,0,0,1-.386.186,1.3,1.3,0,0,1-.515.015,2.855,2.855,0,0,1-.615-.171,4.041,4.041,0,0,1-.614-.3c-.192-.114-.362-.219-.515-.314l-.4-.314-.629,2.172a2.463,2.463,0,0,0,.414.429,3.8,3.8,0,0,0,.543.372,5.77,5.77,0,0,0,.686.329,4.667,4.667,0,0,0,.786.243l.057.029a4.765,4.765,0,0,0,1.715.086,3.576,3.576,0,0,0,1.5-.557,3.1,3.1,0,0,0,1.072-1.258,4.865,4.865,0,0,0,.458-1.9,3.377,3.377,0,0,0-.171-1.258,3.728,3.728,0,0,0-.515-1.029,9.491,9.491,0,0,0-.743-.772,8.81,8.81,0,0,0-.829-.6,4.609,4.609,0,0,1-.5-.342,3.062,3.062,0,0,1-.357-.329.919.919,0,0,1-.2-.329,1.056,1.056,0,0,1-.043-.4,1.149,1.149,0,0,1,.1-.414,1.073,1.073,0,0,1,.257-.342,1.2,1.2,0,0,1,.414-.244,1.936,1.936,0,0,1,.543-.1,4.451,4.451,0,0,1,.614.015,3.072,3.072,0,0,1,.6.114,2.233,2.233,0,0,1,.486.143c.191.076.324.134.4.172Zm-4.6-5.889a10.722,10.722,0,0,0-1.115,2.744l1.973-.629a7.559,7.559,0,0,1,.828-2.4,3.939,3.939,0,0,1,1.8-1.772,1.3,1.3,0,0,0-1.229-.029A4.511,4.511,0,0,0,1176.182,853.826Zm4.031-1.286a4.2,4.2,0,0,0-2.172,3.087l2.458-.743A6.64,6.64,0,0,0,1180.212,852.54Zm2.373,1.716a3.232,3.232,0,0,0-1-1.686,1.049,1.049,0,0,0-.543-.2,7.414,7.414,0,0,1,.314,1.945v.285Zm8.861,19.838-7.718,1.658,1.087-22.011a.655.655,0,0,1,.2.086l1.486,1.458,2,.172.142.029a.187.187,0,0,1,.044.086.171.171,0,0,0,.043.086Z" transform="translate(-83 -35)" fill="#f25a23" stroke="#f25a23" stroke-width="1"/>
  </g>
</svg>
