<svg xmlns="http://www.w3.org/2000/svg" width="66.708" height="66.708" viewBox="0 0 66.708 66.708">
  <g id="Groupe_20" data-name="Groupe 20" transform="translate(0.5 0.5)">
    <path id="Tracé_233" data-name="Tracé 233" d="M1041.854,829.707h0A32.854,32.854,0,0,1,1009,796.854h0A32.854,32.854,0,0,1,1041.854,764h0a32.854,32.854,0,0,1,32.854,32.854h0A32.852,32.852,0,0,1,1041.854,829.707Z" transform="translate(-1009 -764)" fill="#fff" stroke="#fff" stroke-width="1"/>
    <g id="Groupe_14" data-name="Groupe 14" transform="translate(18.712 14.6)">
      <path id="Tracé_274" data-name="Tracé 274" d="M1048.926,779.748a12.1,12.1,0,0,1,4.629,4.379,11.17,11.17,0,0,1,1.67,5.882,18.124,18.124,0,0,1-1.44,7.365,12.3,12.3,0,0,1-3.943,5.109,9.79,9.79,0,0,1-5.924,1.919,6.6,6.6,0,0,1-3.129-.771,4.439,4.439,0,0,1-2-1.857l-1.46,5.757a17.69,17.69,0,0,1-2.17,4.589q-.543.876-1.627,2.295a.322.322,0,0,1-.313.082.2.2,0,0,1-.188-.208,22.809,22.809,0,0,1,.041-7.969l2.713-11.43-.167-.417a7.081,7.081,0,0,1-.334-1.168,8.756,8.756,0,0,1-.167-1.71,6.811,6.811,0,0,1,.543-2.774,5.059,5.059,0,0,1,1.459-1.961,3.21,3.21,0,0,1,2.045-.73,2.547,2.547,0,0,1,2.128.96,3.15,3.15,0,0,1,.669,2.211,9.4,9.4,0,0,1-.334,2.169q-.165.751-.751,2.587-.5,1.71-.752,2.67a3.328,3.328,0,0,0,.125,2.022,3.047,3.047,0,0,0,1.231,1.481,3.528,3.528,0,0,0,1.939.544,4.831,4.831,0,0,0,3.5-1.544,10.117,10.117,0,0,0,2.315-4.025,17.531,17.531,0,0,0,.855-5.569,8.317,8.317,0,0,0-1.022-4.151,7.018,7.018,0,0,0-2.94-2.815,10.01,10.01,0,0,0-4.757-1.085,10.454,10.454,0,0,0-5.506,1.459,9.431,9.431,0,0,0-3.568,3.63,10.079,10.079,0,0,0-1.271,4.965,6.273,6.273,0,0,0,1.376,4.13,1.656,1.656,0,0,1,.355.542,1.381,1.381,0,0,1-.022.627l-.458,1.669a.722.722,0,0,1-.375.521.85.85,0,0,1-.669.022,6.283,6.283,0,0,1-3.212-3.129,10.538,10.538,0,0,1-1.084-4.924,11.808,11.808,0,0,1,1.669-6.008,13.524,13.524,0,0,1,5.006-5.006,16.444,16.444,0,0,1,8.344-2.086A14,14,0,0,1,1048.926,779.748Z" transform="translate(-1026.941 -777.998)" fill="#ffb500"/>
    </g>
  </g>
</svg>
