<svg xmlns="http://www.w3.org/2000/svg" width="70.256" height="70.257" viewBox="0 0 70.256 70.257">
  <g id="Groupe_18" data-name="Groupe 18" transform="translate(0.5 0.5)">
    <path id="Tracé_231" data-name="Tracé 231" d="M971.878,1409.836h0a34.628,34.628,0,0,1-34.628-34.627h0a34.629,34.629,0,0,1,34.628-34.629h0a34.629,34.629,0,0,1,34.628,34.629h0A34.625,34.625,0,0,1,971.878,1409.836Z" transform="translate(-937.25 -1340.58)" fill="#fff" stroke="#fffefe" stroke-width="1"/>
    <path id="Tracé_232" data-name="Tracé 232" d="M989.7,1373.3q0,3.211-.044,4-.176,2.595-.352,3.782a9.293,9.293,0,0,1-.572,2.154,4.308,4.308,0,0,1-1.055,1.671,5.071,5.071,0,0,1-2.682,1.407q-8.355.617-17.809.44-5.54-.09-7.893-.2a26.512,26.512,0,0,1-3.5-.33,5.14,5.14,0,0,1-2.594-1.364,5.968,5.968,0,0,1-1.232-2.417,8.349,8.349,0,0,1-.33-1.362q-.11-.706-.2-2.112a90.741,90.741,0,0,1,0-11.344l.264-2.155a10.2,10.2,0,0,1,.484-2.111,4.816,4.816,0,0,1,1.143-1.759,5.61,5.61,0,0,1,2.595-1.319,44.675,44.675,0,0,1,5.343-.351q4.242-.133,9.212-.132t9.212.155q4.243.154,5.386.33a5.337,5.337,0,0,1,1.693.66,4.342,4.342,0,0,1,1.3,1.143,7.975,7.975,0,0,1,1.011,2.374,13.3,13.3,0,0,1,.44,2.506c0,.148.044.924.132,2.331C989.686,1369.826,989.7,1371.167,989.7,1373.3Zm-17.721,2.155q3.472-1.758,4.925-2.55l-10.333-5.453v10.861Q968.375,1377.307,971.981,1375.454Z" transform="translate(-935.858 -1339.72)" fill="#ffb500" stroke="#fff" stroke-width="1"/>
  </g>
</svg>
