<svg xmlns="http://www.w3.org/2000/svg" width="72.293" height="72.293" viewBox="0 0 72.293 72.293">
  <g id="Groupe_19" data-name="Groupe 19" transform="translate(0.5 0.5)">
    <path id="Tracé_275" data-name="Tracé 275" d="M972.4,402.7h0a35.646,35.646,0,0,1-35.647-35.647h0A35.646,35.646,0,0,1,972.4,331.407h0a35.647,35.647,0,0,1,35.646,35.646h0A35.647,35.647,0,0,1,972.4,402.7Z" transform="translate(-936.75 -331.407)" fill="#fff" stroke="#fff" stroke-width="1"/>
    <g id="Groupe_15" data-name="Groupe 15" transform="translate(26.458 15.843)">
      <path id="Tracé_237" data-name="Tracé 237" d="M977.783,365.233h-5.522v19.781h-8.238V365.233H960.13v-6.971h3.893v-4.527a9.8,9.8,0,0,1,.633-3.576,6.952,6.952,0,0,1,2.49-3.3,8.692,8.692,0,0,1,5.16-1.449l6.111.045v6.79h-4.436a1.754,1.754,0,0,0-1.132.362,1.906,1.906,0,0,0-.589,1.539v4.119h6.247Z" transform="translate(-960.13 -345.407)" fill="#ffb500"/>
    </g>
  </g>
</svg>
