<svg xmlns="http://www.w3.org/2000/svg" width="36" height="36" viewBox="0 0 36 36">
  <g id="Groupe_5" data-name="Groupe 5" transform="translate(-45.5 -1285.5)">
    <path id="Tracé_275" data-name="Tracé 275" d="M954.25,366.407h0a17.5,17.5,0,0,1-17.5-17.5h0a17.5,17.5,0,0,1,17.5-17.5h0a17.5,17.5,0,0,1,17.5,17.5h0A17.5,17.5,0,0,1,954.25,366.407Z" transform="translate(-890.75 954.593)" fill="#fff" stroke="#fff" stroke-width="1"/>
    <g id="Groupe_15" data-name="Groupe 15" transform="translate(58.989 1293.778)">
      <path id="Tracé_237" data-name="Tracé 237" d="M968.8,355.14h-2.711v9.711h-4.044V355.14H960.13v-3.422h1.911V349.5a4.809,4.809,0,0,1,.311-1.756,3.413,3.413,0,0,1,1.222-1.622,4.267,4.267,0,0,1,2.533-.711l3,.022v3.333H966.93a.861.861,0,0,0-.556.178.936.936,0,0,0-.289.756v2.022h3.067Z" transform="translate(-960.13 -345.407)" fill="#ff6c2b"/>
    </g>
  </g>
</svg>
