<svg xmlns="http://www.w3.org/2000/svg" width="26.312" height="29.376" viewBox="0 0 26.312 29.376">
  <g id="Groupe_1" data-name="Groupe 1" transform="translate(-1085.594 -815.249)">
    <path id="Tracé_282" data-name="Tracé 282" d="M1186.495,854.129,1185.235,879l-16.085-3,2.164-16.828a.975.975,0,0,1,.145-.387,1.146,1.146,0,0,1,.436-.226l2.843-.9A14.288,14.288,0,0,1,1176.1,854a6.266,6.266,0,0,1,3.2-3.036,2.417,2.417,0,0,1,2.422.226,2.518,2.518,0,0,1,.388.42,2.388,2.388,0,0,1,1.583.453,4.458,4.458,0,0,1,1.518,2.358l.872-.258A.9.9,0,0,1,1186.495,854.129Zm-4.2,6.75a3.544,3.544,0,0,0-.6-.226,4.761,4.761,0,0,0-.759-.145,7.751,7.751,0,0,0-.888-.049,7.252,7.252,0,0,0-.954.065,6.782,6.782,0,0,0-1.937.582,4.712,4.712,0,0,0-2.406,2.552,5.246,5.246,0,0,0-.371,1.808,3.409,3.409,0,0,0,.1,1.05,3.558,3.558,0,0,0,.387.937,4.353,4.353,0,0,0,.6.791,7.356,7.356,0,0,0,.791.711,5.338,5.338,0,0,1,.565.452,3.183,3.183,0,0,1,.4.453,1.448,1.448,0,0,1,.225.468,1.518,1.518,0,0,1,.049.484,1.289,1.289,0,0,1-.114.453.98.98,0,0,1-.274.355,1.094,1.094,0,0,1-.436.21,1.473,1.473,0,0,1-.581.017,3.226,3.226,0,0,1-.694-.194,4.56,4.56,0,0,1-.694-.339c-.216-.129-.409-.248-.582-.355l-.452-.355-.711,2.455a2.779,2.779,0,0,0,.468.484,4.294,4.294,0,0,0,.614.421,6.522,6.522,0,0,0,.775.371,5.272,5.272,0,0,0,.888.275l.065.032a5.384,5.384,0,0,0,1.938.1,4.04,4.04,0,0,0,1.7-.63,3.5,3.5,0,0,0,1.211-1.421,5.5,5.5,0,0,0,.518-2.148,3.814,3.814,0,0,0-.194-1.421,4.21,4.21,0,0,0-.581-1.163,10.748,10.748,0,0,0-.84-.872,9.952,9.952,0,0,0-.937-.678,5.2,5.2,0,0,1-.565-.387,3.46,3.46,0,0,1-.4-.371,1.038,1.038,0,0,1-.226-.371,1.191,1.191,0,0,1-.049-.453,1.3,1.3,0,0,1,.113-.468,1.213,1.213,0,0,1,.291-.387,1.362,1.362,0,0,1,.468-.275,2.188,2.188,0,0,1,.614-.113,5.029,5.029,0,0,1,.694.017,3.469,3.469,0,0,1,.678.128,2.522,2.522,0,0,1,.549.161c.216.086.366.152.453.194Zm-5.2-6.654a12.111,12.111,0,0,0-1.26,3.1l2.229-.711A8.54,8.54,0,0,1,1179,853.9a4.451,4.451,0,0,1,2.036-2,1.473,1.473,0,0,0-1.389-.032A5.1,5.1,0,0,0,1177.1,854.226Zm4.554-1.453q-1.743.742-2.455,3.488l2.778-.84A7.505,7.505,0,0,0,1181.65,852.772Zm2.681,1.939a3.652,3.652,0,0,0-1.13-1.906,1.185,1.185,0,0,0-.614-.226,8.379,8.379,0,0,1,.355,2.2v.322Zm10.013,22.416L1185.622,879l1.228-24.871a.74.74,0,0,1,.225.1l1.679,1.647,2.262.194.161.032a.21.21,0,0,1,.049.1.194.194,0,0,0,.048.1Z" transform="translate(-83 -35)" fill="#ffb08d" stroke="#ffb08d" stroke-width="1"/>
  </g>
</svg>
