<svg xmlns="http://www.w3.org/2000/svg" xmlns:xlink="http://www.w3.org/1999/xlink" width="176.852" height="33.368" viewBox="0 0 176.852 33.368">
  <defs>
    <clipPath id="clip-path">
      <rect width="10.011" height="10.011" fill="none"/>
    </clipPath>
  </defs>
  <g id="Tabs" transform="translate(-40 -100)">
    <g id="Tab" transform="translate(40 100)">
      <g id="Groupe_24" data-name="Groupe 24">
        <g id="Ellipse_173" data-name="Ellipse 173" fill="#ffb08d" stroke="#ffb08d" stroke-width="2">
          <circle cx="16.684" cy="16.684" r="16.684" stroke="none"/>
          <circle cx="16.684" cy="16.684" r="15.684" fill="none"/>
        </g>
        <g id="Composant_62_1" data-name="Composant 62 – 1" transform="translate(11.679 11.679)" clip-path="url(#clip-path)">
          <rect id="Rectangle_176" data-name="Rectangle 176" width="10.011" height="10.011" fill="none"/>
          <path id="Tracé_99" data-name="Tracé 99" d="M9.5,8.663,7.528,6.692a4.091,4.091,0,0,0,.836-2.509A4.157,4.157,0,0,0,4.182,0,4.157,4.157,0,0,0,0,4.182,4.157,4.157,0,0,0,4.182,8.365a4.091,4.091,0,0,0,2.509-.836L8.663,9.5Zm-8.3-4.481A2.958,2.958,0,0,1,4.182,1.195,2.958,2.958,0,0,1,7.17,4.182,2.958,2.958,0,0,1,4.182,7.17,2.958,2.958,0,0,1,1.195,4.182Z" fill="#fc3907"/>
        </g>
      </g>
    </g>
    <g id="Tab-2" data-name="Tab" transform="translate(87.55 100)">
      <g id="Groupe_25" data-name="Groupe 25">
        <g id="Ellipse_174" data-name="Ellipse 174" fill="#ffb08d" stroke="#ffb08d" stroke-width="2">
          <circle cx="16.684" cy="16.684" r="16.684" stroke="none"/>
          <circle cx="16.684" cy="16.684" r="15.684" fill="none"/>
        </g>
        <g id="Composant_140_1" data-name="Composant 140 – 1" transform="translate(11.679 11.679)" clip-path="url(#clip-path)">
          <rect id="Rectangle_252" data-name="Rectangle 252" width="10.011" height="10.011" fill="none"/>
          <path id="Tracé_110" data-name="Tracé 110" d="M4.78,5.975A1.195,1.195,0,1,0,3.585,4.78,1.2,1.2,0,0,0,4.78,5.975Zm0-3.585A2.39,2.39,0,1,1,2.39,4.78,2.4,2.4,0,0,1,4.78,2.39ZM8.365,8.962H1.195A1.18,1.18,0,0,1,.358,8.6,1.18,1.18,0,0,1,0,7.767V2.39A1.2,1.2,0,0,1,1.195,1.195h.956l.9-.9A.989.989,0,0,1,3.764,0H5.855a.959.959,0,0,1,.657.3l.9.9h.956A1.2,1.2,0,0,1,9.56,2.39V7.767A1.2,1.2,0,0,1,8.365,8.962Z" transform="translate(0 0.597)" fill="#ff6c2b" fill-rule="evenodd"/>
        </g>
      </g>
    </g>
    <g id="Tab-3" data-name="Tab" transform="translate(135.934 100)">
      <g id="Groupe_26" data-name="Groupe 26">
        <g id="Ellipse_175" data-name="Ellipse 175" fill="#ffb08d" stroke="#ffb08d" stroke-width="2">
          <circle cx="16.684" cy="16.684" r="16.684" stroke="none"/>
          <circle cx="16.684" cy="16.684" r="15.684" fill="none"/>
        </g>
        <g id="Composant_14_1" data-name="Composant 14 – 1" transform="translate(11.679 11.679)" clip-path="url(#clip-path)">
          <path id="Union_1" data-name="Union 1" d="M4.379,10.011V5.631H0V4.38H4.379V0H5.631V4.38h4.379V5.631H5.631v4.38Z" fill="#ff6c2b"/>
        </g>
      </g>
    </g>
    <g id="Tab-4" data-name="Tab" transform="translate(183.484 100)">
      <g id="Groupe_27" data-name="Groupe 27">
        <g id="Ellipse_176" data-name="Ellipse 176" fill="#ffb08d" stroke="#ffb08d" stroke-width="2">
          <circle cx="16.684" cy="16.684" r="16.684" stroke="none"/>
          <circle cx="16.684" cy="16.684" r="15.684" fill="none"/>
        </g>
        <g id="Composant_6_2" data-name="Composant 6 – 2" transform="translate(11.679 11.679)" clip-path="url(#clip-path)">
          <path id="Union_1-2" data-name="Union 1" d="M0,10.011V8.759c0-1.377,2.252-2.5,5.005-2.5s5.005,1.126,5.005,2.5v1.251ZM2.5,2.5a2.5,2.5,0,1,1,2.5,2.5A2.5,2.5,0,0,1,2.5,2.5Z" fill="#ff6c2b"/>
        </g>
      </g>
    </g>
  </g>
</svg>
