<svg xmlns="http://www.w3.org/2000/svg" width="35" height="35" viewBox="0 0 35 35">
  <g id="Groupe_4" data-name="Groupe 4" transform="translate(-148.5 -1285.5)">
    <path id="Tracé_231" data-name="Tracé 231" d="M954.25,1374.58h0a17,17,0,0,1-17-17h0a17,17,0,0,1,17-17h0a17,17,0,0,1,17,17h0A17,17,0,0,1,954.25,1374.58Z" transform="translate(-788.25 -54.58)" fill="#fff" stroke="#fffefe" stroke-width="1"/>
    <path id="Tracé_232" data-name="Tracé 232" d="M970.137,1366.427q0,1.576-.021,1.965-.087,1.274-.173,1.857a4.562,4.562,0,0,1-.281,1.057,2.116,2.116,0,0,1-.518.82,2.49,2.49,0,0,1-1.317.691q-4.1.3-8.743.216-2.72-.044-3.875-.1a13.031,13.031,0,0,1-1.716-.162,2.524,2.524,0,0,1-1.274-.67,2.93,2.93,0,0,1-.6-1.187,4.1,4.1,0,0,1-.162-.669q-.054-.346-.1-1.037a44.538,44.538,0,0,1,0-5.569l.13-1.058a5.014,5.014,0,0,1,.237-1.036,2.367,2.367,0,0,1,.561-.863,2.756,2.756,0,0,1,1.274-.648,21.951,21.951,0,0,1,2.623-.172q2.083-.065,4.522-.065t4.522.076q2.083.076,2.644.162a2.621,2.621,0,0,1,.831.324,2.135,2.135,0,0,1,.637.561,3.92,3.92,0,0,1,.5,1.166,6.534,6.534,0,0,1,.216,1.23c0,.073.022.453.065,1.144C970.13,1364.722,970.137,1365.38,970.137,1366.427Zm-8.7,1.058q1.7-.863,2.418-1.252l-5.073-2.677v5.332Q959.667,1368.395,961.438,1367.485Z" transform="translate(-794.704 -63.943)" fill="#ff6c2b" stroke="#fff" stroke-width="1"/>
  </g>
</svg>
